<?xml version="1.0" encoding="iso-8859-1"?>
<!-- Generator: Adobe Illustrator 16.0.4, SVG Export Plug-In . SVG Version: 6.00 Build 0)  -->
<!DOCTYPE svg PUBLIC "-//W3C//DTD SVG 1.1//EN" "http://www.w3.org/Graphics/SVG/1.1/DTD/svg11.dtd">
<svg version="1.1" id="Capa_1" xmlns="http://www.w3.org/2000/svg" xmlns:xlink="http://www.w3.org/1999/xlink" x="0px" y="0px"
	 width="45.258px" height="45.257px" viewBox="0 0 45.258 45.257" style="enable-background:new 0 0 45.258 45.257;"
	 xml:space="preserve">
<g>
	<path style="fill:#262626;" d="M19.967,23.706h-1.31c0.179,0.165,0.253,0.238,0.608,0.247
		C19.523,23.969,19.75,23.853,19.967,23.706z"/>
	<polygon style="fill:#262626;" points="31.545,23.911 31.898,23.706 30.931,23.706 	"/>
	<path style="fill:#262626;" d="M12.089,24.865c0.751-0.24,1.41-0.61,2.046-0.971c0.114-0.063,0.227-0.127,0.341-0.188H9.63
		C9.914,24.171,10.764,25.29,12.089,24.865z"/>
	<path style="fill:#262626;" d="M8.748,23.894l0.387-0.188H7.559v2.109h3.857C10.05,25.764,9.101,24.62,8.748,23.894z"/>
	<path style="fill:#262626;" d="M11.506,25.824c0.039,0,0.078-0.008,0.116-0.009h-0.206C11.449,25.815,11.475,25.824,11.506,25.824z
		"/>
	<path style="fill:#262626;" d="M9.521,23.517l-0.387,0.189H9.63C9.565,23.603,9.53,23.53,9.521,23.517z"/>
	<path style="fill:#262626;" d="M22.629,0C10.151,0,0,10.151,0,22.629s10.151,22.628,22.629,22.628
		c12.479,0,22.629-10.15,22.629-22.628S35.108,0,22.629,0z M2.962,22.629c0-10.844,8.822-19.666,19.667-19.666
		c4.421,0,8.504,1.466,11.792,3.937l-4.526,5.49c-1.568-0.832-3.342-1.362-5.331-1.498c-0.345-0.023-2.343-0.036-2.694-0.036
		c-6.098,0-10.77,4.034-13.128,9.254l14.822-0.038l-0.716,0.867H8.423v2.109h12.688l-1.419,1.72
		c-0.141,0.032-0.291,0.052-0.451,0.046c-0.685-0.021-0.946-0.268-1.176-0.484c-0.19-0.18-0.391-0.368-1.045-0.496
		c-0.758-0.147-1.548,0.297-2.46,0.812c-0.642,0.361-1.371,0.771-2.207,1.041c-0.255,0.082-0.497,0.119-0.73,0.129h7.208
		l-0.771,0.936H8.854c0,0-0.544,2.83,0.862,2.83c0.419,0,2.822,0,6.008,0L9.44,37.204C5.464,33.603,2.962,28.402,2.962,22.629z
		 M22.629,42.296c-4.007,0-7.736-1.208-10.847-3.273l7.781-9.441c7.125,0,15.589,0,16.266,0c1.146,0,0.86-2.83,0.86-2.83H21.897
		l0.771-0.936H37.91v-2.109h-3.064l1.256,0.674l-0.407,0.76l-2.37-1.273l-1.682,0.989l-2.127-0.719h-2.874
		c-0.524,0-0.678,0.092-0.987,0.282c-0.347,0.211-0.821,0.501-1.927,0.76c-0.259,0.062-0.472,0.108-0.656,0.146l0.908-1.102
		c0.618-0.183,0.936-0.362,1.189-0.517h-0.762l0.542-0.658h12.099v-2.109H26.688l0.723-0.879l9.104-0.023
		c-0.996-2.353-2.395-4.393-4.176-5.953l4.309-5.23c3.489,3.552,5.647,8.416,5.647,13.776
		C42.295,33.472,33.473,42.296,22.629,42.296z"/>
</g>
<g>
</g>
<g>
</g>
<g>
</g>
<g>
</g>
<g>
</g>
<g>
</g>
<g>
</g>
<g>
</g>
<g>
</g>
<g>
</g>
<g>
</g>
<g>
</g>
<g>
</g>
<g>
</g>
<g>
</g>
</svg>
